{"title":"Mad Max Fury Road 2015 Movies SCam XviD AAC with Sample ~ â˜»rDXâ˜»","uid":11946982,"size":739487005,"categoryP":"video","categoryS":"movies","magnet":"?xt=urn:btih:db43d16ef1c9741838e398f8cab8c367261f508b&amp;dn=Mad+Max+Fury+Road+2015+Movies+SCam+XviD+AAC+with+Sample+%7E+%E2%98%BBrDX%E2%98%BB&amp;tr=udp%3A%2F%2Ftracker.openbittorrent.com%3A80&amp;tr=udp%3A%2F%2Fopen.demonii.com%3A1337&amp;tr=udp%3A%2F%2Ftracker.coppersurfer.tk%3A6969&amp;tr=udp%3A%2F%2Fexodus.desync.com%3A6969","seeders":0,"leechers":1,"uploader":"basicssom","files":2,"time":1432098863,"description":"----------------------------------------------------------------\nMad Max Fury Road 2015 English Movies SCam XviD AAC with Sample ~ â˜»rDXâ˜»\n\nSCREEN SHOTS &amp; POSTER:\n &lt;a href=&quot;\nhttp://imagehosting4u.com/2015/5/MadMaxFuryRoad/11.html&quot; rel=&quot;nofollow&quot; target=&quot;_NEW&quot;&gt;\nhttp://imagehosting4u.com/2015/5/MadMaxFuryRoad/11.html&lt;/a&gt; &lt;a href=&quot;\nhttp://imagehosting4u.com/2015/5/MadMaxFuryRoad/1.html&quot; rel=&quot;nofollow&quot; target=&quot;_NEW&quot;&gt;\nhttp://imagehosting4u.com/2015/5/MadMaxFuryRoad/1.html&lt;/a&gt; &lt;a href=&quot;\nhttp://imagehosting4u.com/2015/5/MadMaxFuryRoad/2.html&quot; rel=&quot;nofollow&quot; target=&quot;_NEW&quot;&gt;\nhttp://imagehosting4u.com/2015/5/MadMaxFuryRoad/2.html&lt;/a&gt; &lt;a href=&quot;\nhttp://imagehosting4u.com/2015/5/MadMaxFuryRoad/3.html&quot; rel=&quot;nofollow&quot; target=&quot;_NEW&quot;&gt;\nhttp://imagehosting4u.com/2015/5/MadMaxFuryRoad/3.html&lt;/a&gt; &lt;a href=&quot;\nhttp://imagehosting4u.com/2015/5/MadMaxFuryRoad/4.html&quot; rel=&quot;nofollow&quot; target=&quot;_NEW&quot;&gt;\nhttp://imagehosting4u.com/2015/5/MadMaxFuryRoad/4.html&lt;/a&gt; &lt;a href=&quot;\nhttp://imagehosting4u.com/2015/5/MadMaxFuryRoad/5.html&quot; rel=&quot;nofollow&quot; target=&quot;_NEW&quot;&gt;\nhttp://imagehosting4u.com/2015/5/MadMaxFuryRoad/5.html&lt;/a&gt; &lt;a href=&quot;\nhttp://imagehosting4u.com/2015/5/MadMaxFuryRoad/6.html&quot; rel=&quot;nofollow&quot; target=&quot;_NEW&quot;&gt;\nhttp://imagehosting4u.com/2015/5/MadMaxFuryRoad/6.html&lt;/a&gt; &lt;a href=&quot;\nhttp://imagehosting4u.com/2015/5/MadMaxFuryRoad/7.html&quot; rel=&quot;nofollow&quot; target=&quot;_NEW&quot;&gt;\nhttp://imagehosting4u.com/2015/5/MadMaxFuryRoad/7.html&lt;/a&gt; &lt;a href=&quot;\nhttp://imagehosting4u.com/2015/5/MadMaxFuryRoad/8.html&quot; rel=&quot;nofollow&quot; target=&quot;_NEW&quot;&gt;\nhttp://imagehosting4u.com/2015/5/MadMaxFuryRoad/8.html&lt;/a&gt; &lt;a href=&quot;\nhttp://imagehosting4u.com/2015/5/MadMaxFuryRoad/9.html&quot; rel=&quot;nofollow&quot; target=&quot;_NEW&quot;&gt;\nhttp://imagehosting4u.com/2015/5/MadMaxFuryRoad/9.html&lt;/a&gt; &lt;a href=&quot;\nhttp://imagehosting4u.com/2015/5/MadMaxFuryRoad/10.html&quot; rel=&quot;nofollow&quot; target=&quot;_NEW&quot;&gt;\nhttp://imagehosting4u.com/2015/5/MadMaxFuryRoad/10.html&lt;/a&gt;\n\nFormat                                   : Matroska\nFormat version                           : Version 4 / Version 2\nFile size                                : 697 MiB\nDuration                                 : 1h 52mn\nOverall bit rate                         : 863 Kbps\nMovie name                               : Mad Max Fury Road 2015 English Movies HDCam XviD AAC ~ rDX ~\n\nVideo\nID                                       : 1\nFormat                                   : AVC\nFormat/Info                              : Advanced Video Codec\nFormat profile                           : &lt;a class=&quot;__cf_email__&quot; href=&quot;/cdn-cgi/l/email-protection&quot; data-cfemail=&quot;50123123353c393e35101c637e60&quot;&gt;[email&amp;#160;protected]&lt;/a&gt;&lt;script data-cfhash='f9e31' type=&quot;text/javascript&quot;&gt;\n/* &lt;![CDATA[ */!function(){try{var t=&quot;currentScript&quot;in document?document.currentScript:function(){for(var t=document.getElementsByTagName(&quot;script&quot;),e=t.length;e--;)if(t[e].getAttribute(&quot;data-cfhash&quot;))return t[e]}();if(t&amp;&amp;t.previousSibling){var e,r,n,i,c=t.previousSibling,a=c.getAttribute(&quot;data-cfemail&quot;);if(a){for(e=&quot;&quot;,r=parseInt(a.substr(0,2),16),n=2;a.length-n;n+=2)i=parseInt(a.substr(n,2),16)^r,e+=String.fromCharCode(i);e=document.createTextNode(e),c.parentNode.replaceChild(e,c)}t.parentNode.removeChild(t);}}catch(u){}}()/* ]]&gt; */&lt;/script&gt;\nFormat settings, CABAC                   : No\nFormat settings, ReFrames                : 1 frame\nFormat settings, GOP                     : M=1, N=60\nCodec ID                                 : V_MPEG4/ISO/AVC\nDuration                                 : 1h 52mn\nBit rate                                 : 654 Kbps\nWidth                                    : 640 pixels\nHeight                                   : 360 pixels\nDisplay aspect ratio                     : 16:9\nFrame rate mode                          : Constant\nFrame rate                               : 24.000 fps\nColor space                              : YUV\nChroma subsampling                       : 4:2:0\nBit depth                                : 8 bits\nScan type                                : Progressive\nBits/(Pixel*Frame)                       : 0.118\nStream size                              : 528 MiB (76%)\nTitle                                    : ~ rDX ~\nDefault                                  : Yes\nForced                                   : No\n\nAudio\nID                                       : 2\nFormat                                   : AC-3\nFormat/Info                              : Audio Coding 3\nMode extension                           : CM (complete main)\nFormat settings, Endianness              : Big\nCodec ID                                 : A_AC3\nDuration                                 : 1h 52mn\nBit rate mode                            : Constant\nBit rate                                 : 192 Kbps\nChannel(s)                               : 2 channels\nChannel positions                        : Front: L R\nSampling rate                            : 44.1 KHz\nBit depth                                : 16 bits\nCompression mode                         : Lossy\nStream size                              : 155 MiB (22%)\nTitle                                    : ~ rDX ~\nLanguage                                 : unknown\nDefault                                  : Yes\nForced                                   : No","torrent":{"xt":"urn:btih:db43d16ef1c9741838e398f8cab8c367261f508b","amp;dn":"Mad+Max+Fury+Road+2015+Movies+SCam+XviD+AAC+with+Sample+%7E+%E2%98%BBrDX%E2%98%BB","amp;tr":["udp%3A%2F%2Ftracker.openbittorrent.com%3A80","udp%3A%2F%2Fopen.demonii.com%3A1337","udp%3A%2F%2Ftracker.coppersurfer.tk%3A6969","udp%3A%2F%2Fexodus.desync.com%3A6969"],"infoHash":"db43d16ef1c9741838e398f8cab8c367261f508b","infoHashBuffer":{"type":"Buffer","data":[219,67,209,110,241,201,116,24,56,227,152,248,202,184,195,103,38,31,80,139]},"announce":[],"urlList":[]}}